<svg viewBox="0 0 32 32" xmlns="http://www.w3.org/2000/svg">
  <!-- PIDYOM Favicon 32x32 -->
  <rect width="32" height="32" rx="4" fill="#0D0D0D"/>
  <path d="M16 2 L30 16 L16 30 L2 16 Z" stroke="#C6FF00" stroke-width="1" fill="none"/>
  <path d="
    M16 7
    C13 7 11 9 11 11.5
    C11 13.5 12.5 15 14 15.5
    L13.5 17
    C11 18 9 20 9 23
    C9 26 12 28 16 28
    C20 28 23 26 23 23
    C23 20 21 18 18.5 17
    L18 15.5
    C19.5 15 21 13.5 21 11.5
    C21 9 19 7 16 7Z
  " fill="#C6FF00"/>
  <ellipse cx="16" cy="11" rx="2.5" ry="2" fill="#0D0D0D"/>
</svg>
