<svg viewBox="0 0 130 210" xmlns="http://www.w3.org/2000/svg">
  <!--
    PIDYOM Mark — Volt accent variant (Volt on Charcoal)
    The accent color version for high-energy contexts
  -->
  <rect width="130" height="210" fill="#1A1A1A"/>
  <g transform="translate(65, 108) rotate(5)">
    <circle cx="0" cy="48" r="40" fill="#C6FF00"/>
    <path d="
      M-25 17
      C-27 2 -24 -15 -17 -25
      C-10 -35 -3 -40 0 -42
      C3 -40 10 -35 17 -25
      C24 -15 27 2 25 17
      L17 13
      C19 2 17 -9 12 -17
      C7 -25 3 -30 0 -32
      C-3 -30 -7 -25 -12 -17
      C-17 -9 -19 2 -17 13
      Z
    " fill="#C6FF00"/>
  </g>
</svg>
